<svg width="24" height="18" viewBox="0 0 24 18" fill="none" xmlns="http://www.w3.org/2000/svg">
<g clip-path="url(#clip0_7320_4293)">
<path d="M5.62875 0H18.3675V18H5.625L5.62875 0Z" fill="white"/>
<path d="M-0.738281 0H5.62922V18H-0.738281V0ZM18.368 0H24.7355V18H18.3717L18.368 0ZM7.53797 8.7L7.03922 8.865L9.34172 10.89C9.51797 11.4038 9.28172 11.5575 9.13172 11.8275L11.6292 11.5125L11.5692 14.025L12.0905 14.0138L11.9742 11.5163L14.4755 11.8163C14.3217 11.49 14.183 11.3175 14.3255 10.7963L16.6242 8.88375L16.223 8.73375C15.893 8.47875 16.3655 7.51125 16.433 6.9C16.433 6.9 15.0942 7.36125 15.008 7.1175L14.663 6.46125L13.4405 7.80375C13.3092 7.8375 13.253 7.785 13.2192 7.6725L13.7817 4.8675L12.8892 5.37C12.8142 5.40375 12.7392 5.37375 12.6942 5.2875L11.8317 3.5625L10.9467 5.355C10.8792 5.41875 10.8117 5.42625 10.7592 5.38125L9.90047 4.905L10.4142 7.68375C10.373 7.79625 10.2755 7.82625 10.163 7.76625L8.99297 6.4425C8.84297 6.68625 8.73797 7.08375 8.53547 7.17375C8.33297 7.26 7.65422 7.005 7.20047 6.91125C7.35797 7.46625 7.83797 8.39625 7.53797 8.7Z" fill="#D52B1E"/>
</g>
<defs>
<clipPath id="clip0_7320_4293">
<rect width="24" height="18" fill="white"/>
</clipPath>
</defs>
</svg>
