<svg width="24" height="24" viewBox="0 0 24 24" fill="none" xmlns="http://www.w3.org/2000/svg">
<path d="M11 14.5L6.88815 16.5559C6.3497 16.8252 5.70245 16.7464 5.2443 16.3559L2 13.5904L3.78113 12.9079C4.09935 12.7859 4.4496 12.7759 4.77423 12.8796L6.41365 13.4031C6.78935 13.5231 7.1972 13.4903 7.54885 13.3118L18.68 7.6624C18.8904 7.55565 19.123 7.5 19.3589 7.5H22L21.2236 9.0528C21.0785 9.3431 20.8431 9.57845 20.5528 9.7236L16 12" stroke="#043E5F" stroke-width="2" stroke-linecap="round" stroke-linejoin="round"/>
<path d="M11.0002 14.5L9 15.5L11.5 20.5L16 12" stroke="#043E5F" stroke-width="2" stroke-linecap="round" stroke-linejoin="round"/>
<path d="M8.5 12.5L6 8L14 10" stroke="#043E5F" stroke-width="2" stroke-linecap="round" stroke-linejoin="round"/>
</svg>
