<svg width="21" height="20" viewBox="0 0 21 20" fill="none" xmlns="http://www.w3.org/2000/svg">
<path d="M10.4993 18.3337C12.8005 18.3337 14.8839 17.4009 16.3919 15.8929C17.8999 14.3848 18.8327 12.3015 18.8327 10.0003C18.8327 7.69916 17.8999 5.61583 16.3919 4.10777C14.8839 2.59973 12.8005 1.66699 10.4993 1.66699C8.19818 1.66699 6.11485 2.59973 4.60679 4.10777C3.09876 5.61583 2.16602 7.69916 2.16602 10.0003C2.16602 12.3015 3.09876 14.3848 4.60679 15.8929C6.11485 17.4009 8.19818 18.3337 10.4993 18.3337Z" stroke="#043E5F" stroke-width="2" stroke-linejoin="round"/>
<path d="M10.5 11.9274V10.2607C11.8807 10.2607 13 9.14145 13 7.76074C13 6.38003 11.8807 5.26074 10.5 5.26074C9.11929 5.26074 8 6.38003 8 7.76074" stroke="#043E5F" stroke-width="2" stroke-linecap="round" stroke-linejoin="round"/>
<path fill-rule="evenodd" clip-rule="evenodd" d="M10.5007 15.6771C11.0759 15.6771 11.5423 15.2107 11.5423 14.6354C11.5423 14.0601 11.0759 13.5938 10.5007 13.5938C9.92536 13.5938 9.45898 14.0601 9.45898 14.6354C9.45898 15.2107 9.92536 15.6771 10.5007 15.6771Z" fill="#043E5F"/>
</svg>
