<svg width="46" height="44" viewBox="0 0 46 44" fill="none" xmlns="http://www.w3.org/2000/svg">
<path d="M44.0524 11.1803C43.724 9.6149 43.8117 9.7377 43.4506 7.0929L38.5158 8.05464C42.411 5.46943 44.214 3.81201 45.8578 0C46.2333 5.19333 45.9413 7.67428 44.0524 11.1803Z" fill="#F2B203"/>
<path d="M36.3708 25.7268C36.3708 35.8188 28.1799 44 18.0758 44C12.7647 44 7.98219 41.7395 4.64002 38.1293C4.74482 38.1229 4.85059 38.1161 4.95734 38.109C19.1857 37.1554 27.5343 31.6096 35.3427 19.6722C37.042 17.0507 38.7327 14.1167 40.4603 10.8425C38.174 12.8835 35.9615 14.7275 33.7943 16.3711L33.7953 16.3727C22.4389 25.9514 12.2087 27.9842 0.022494 22.8412C0.0150276 22.8573 0.00752921 22.8735 0 22.8896C1.36476 14.145 8.93792 7.45355 18.0758 7.45355C24.5827 7.45355 30.2962 10.8465 33.5396 15.9577C35.9849 14.1003 38.4986 11.9832 41.109 9.60984C41.4538 9.29627 41.8004 8.97824 42.1487 8.65574C41.9352 9.07566 41.7223 9.49053 41.5101 9.90038C39.5014 13.779 37.522 17.2704 35.547 20.2886C36.0824 22.0064 36.3708 23.8329 36.3708 25.7268Z" fill="#07689F"/>
</svg>
