<svg width="24" height="24" viewBox="0 0 24 24" fill="none" xmlns="http://www.w3.org/2000/svg">
<g clip-path="url(#clip0_7309_9719)">
<path d="M0 3.20218C0 2.42996 0.270278 1.7929 0.810811 1.29098C1.35134 0.789043 2.05406 0.538086 2.91892 0.538086C3.76835 0.538086 4.45559 0.785175 4.9807 1.2794C5.52123 1.78905 5.79151 2.45313 5.79151 3.27168C5.79151 4.01299 5.52897 4.63073 5.00386 5.12496C4.46333 5.63461 3.7529 5.88944 2.87259 5.88944H2.84942C1.99999 5.88944 1.31275 5.63461 0.787645 5.12496C0.262541 4.61531 0 3.97437 0 3.20218ZM0.301158 23.4724V7.99755H5.44402V23.4724H0.301158ZM8.29344 23.4724H13.4363V14.8315C13.4363 14.291 13.4981 13.874 13.6216 13.5806C13.8378 13.0555 14.166 12.6114 14.6062 12.2485C15.0463 11.8856 15.5984 11.7041 16.2626 11.7041C17.9923 11.7041 18.8571 12.8701 18.8571 15.2022V23.4724H24V14.5999C24 12.3141 23.4595 10.5806 22.3784 9.39909C21.2973 8.21762 19.8687 7.62689 18.0927 7.62689C16.1004 7.62689 14.5483 8.48403 13.4363 10.1983V10.2446H13.4131L13.4363 10.1983V7.99755H8.29344C8.32432 8.49175 8.33977 10.0284 8.33977 12.6076C8.33977 15.1867 8.32432 18.8083 8.29344 23.4724Z" fill="#07689F"/>
</g>
<defs>
<clipPath id="clip0_7309_9719">
<rect width="24" height="24" fill="white"/>
</clipPath>
</defs>
</svg>
