<svg width="20" height="20" viewBox="0 0 20 20" fill="none" xmlns="http://www.w3.org/2000/svg">
<path d="M17.4081 8.58576C17.5135 7.87918 17.4789 7.1558 17.3045 6.46026C17.0741 5.54143 16.5996 4.67126 15.8811 3.95272C15.1625 3.23418 14.2924 2.75971 13.3736 2.52932C12.678 2.35491 11.9546 2.32037 11.248 2.4257" stroke="#07689F" stroke-linecap="round" stroke-linejoin="round"/>
<path d="M14.2454 8.25144C14.3583 7.49452 14.1233 6.69577 13.5407 6.11311C12.958 5.53044 12.1592 5.29548 11.4023 5.40831" stroke="#07689F" stroke-linecap="round" stroke-linejoin="round"/>
<path d="M5.98913 3.66406C6.29188 3.66406 6.5708 3.82824 6.71772 4.09292L7.73709 5.92909C7.87055 6.16951 7.8768 6.4603 7.75384 6.70626L6.77184 8.67026C6.77184 8.67026 7.05643 10.1334 8.24743 11.3244C9.43843 12.5154 10.8966 12.795 10.8966 12.795L12.8603 11.8132C13.1065 11.6901 13.3975 11.6965 13.638 11.8302L15.4793 12.854C15.7438 13.001 15.9078 13.2798 15.9078 13.5823V15.6963C15.9078 16.7728 14.9078 17.5503 13.8878 17.2061C11.7928 16.4993 8.54084 15.1533 6.47968 13.0921C4.41847 11.031 3.07255 7.77901 2.36566 5.68405C2.02148 4.66401 2.79902 3.66406 3.87554 3.66406H5.98913Z" stroke="#07689F" stroke-linejoin="round"/>
</svg>
