<svg width="16" height="18" viewBox="0 0 16 18" fill="none" xmlns="http://www.w3.org/2000/svg">
<path d="M12.3397 5.68262L12.2999 5.92771C11.7749 8.77587 9.99317 9.75624 7.71027 9.75624H6.54893C6.41451 9.75653 6.28459 9.80775 6.18253 9.9007C6.08046 9.99365 6.01295 10.1222 5.99213 10.2633L5.39555 14.2693L5.22851 15.4018C5.22153 15.4469 5.22394 15.4931 5.23557 15.5371C5.2472 15.5811 5.26777 15.6219 5.29583 15.6565C5.32389 15.6912 5.35875 15.7189 5.39797 15.7377C5.43719 15.7564 5.47981 15.7659 5.52282 15.7653H7.583C7.70111 15.7669 7.81586 15.7234 7.90637 15.6428C7.99687 15.5621 8.05713 15.4496 8.07617 15.3258V15.2159L8.45798 12.6044V12.4607C8.47529 12.3353 8.5348 12.2208 8.62547 12.1385C8.71615 12.0561 8.83186 12.0115 8.95115 12.0128H9.26137C11.2579 12.0128 12.817 11.1676 13.2385 8.63219C13.3611 8.20465 13.3875 7.75253 13.3156 7.31218C13.2438 6.87182 13.0757 6.45552 12.8249 6.09674C12.6849 5.93218 12.5211 5.79239 12.3397 5.68262Z" fill="#179BD7"/>
<path d="M11.7905 5.45443L11.5439 5.38682L11.2814 5.33611C10.9444 5.28219 10.604 5.25676 10.2633 5.26005H7.16105C7.04313 5.26074 6.92935 5.30631 6.84033 5.38849C6.75131 5.47066 6.69295 5.58401 6.67584 5.70798L6.01562 10.145V10.2718C6.03645 10.1307 6.10396 10.0021 6.20602 9.90916C6.30809 9.81621 6.43801 9.76499 6.57243 9.7647H7.73377C10.0167 9.7647 11.7984 8.78432 12.3234 5.93617C12.3234 5.85165 12.3234 5.76714 12.3632 5.69108C12.2254 5.61358 12.0817 5.54856 11.9337 5.49669L11.7905 5.45443Z" fill="#222D65"/>
<path d="M6.66735 5.69912C6.68447 5.57515 6.74282 5.4618 6.83184 5.37962C6.92086 5.29745 7.03464 5.25188 7.15257 5.25119H10.2548C10.5982 5.24745 10.9413 5.27288 11.2809 5.32725L11.5434 5.37796L11.79 5.44557H11.9093C12.0573 5.49762 12.2009 5.56264 12.3388 5.63996C12.4394 5.22122 12.4435 4.78287 12.3507 4.36209C12.258 3.94131 12.0711 3.55051 11.8059 3.22283C11.2172 2.5129 10.1514 2.2002 8.79116 2.2002H4.81399C4.67956 2.20048 4.54964 2.2517 4.44758 2.34465C4.34552 2.4376 4.27801 2.56618 4.25718 2.70729L2.61858 13.8548C2.6118 13.9059 2.61534 13.958 2.62896 14.0075C2.64258 14.057 2.66597 14.1029 2.69758 14.1421C2.72918 14.1812 2.76828 14.2128 2.81226 14.2347C2.85624 14.2566 2.90411 14.2682 2.95267 14.2689H5.39465L6.00714 10.1362L6.66735 5.69912Z" fill="#253B80"/>
</svg>
