<svg width="30" height="30" viewBox="0 0 30 30" fill="none" xmlns="http://www.w3.org/2000/svg">
<path d="M29.4492 12.5696C30.7628 20.5166 25.4428 28.0696 17.4301 29.4488C16.1166 29.6459 14.7373 29.7115 13.4895 29.5802C9.35174 29.1204 5.60809 26.9531 3.17801 23.6035L26.8221 16.773C27.1505 16.7073 27.0848 16.3789 26.8221 16.3789L16.9047 17.0357C18.2839 15.6565 19.4005 14.0145 19.2691 11.7158C19.0064 8.03782 15.2628 4.35985 8.23522 1.99544C9.61445 1.27299 11.0594 0.747564 12.6356 0.484852C13.9492 0.287818 15.3284 0.222139 16.5763 0.353495C22.8814 1.07595 28.3327 5.93612 29.4492 12.5696ZM0.55089 17.4298C0.879279 19.4001 1.60174 21.2391 2.58691 22.8154C6.33055 21.7645 9.68013 19.7942 10.8623 15.3281C12.1759 10.4679 10.6653 5.34502 7.11869 2.65222C2.38987 5.67341 -0.43428 11.3874 0.55089 17.4298Z" fill="#C90019"/>
</svg>
