<svg width="47" height="44" viewBox="0 0 47 44" fill="none" xmlns="http://www.w3.org/2000/svg">
<path d="M44.5524 11.1803C44.224 9.6149 44.3117 9.7377 43.9506 7.0929L39.0158 8.05464C42.911 5.46943 44.714 3.81201 46.3578 0C46.7333 5.19333 46.4413 7.67428 44.5524 11.1803Z" fill="#F2B203"/>
<path d="M36.8708 25.7268C36.8708 35.8188 28.6799 44 18.5758 44C13.2647 44 8.48219 41.7395 5.14002 38.1293C5.24482 38.1229 5.35059 38.1161 5.45734 38.109C19.6857 37.1554 28.0343 31.6096 35.8427 19.6722C37.542 17.0507 39.2327 14.1167 40.9603 10.8425C38.674 12.8835 36.4615 14.7275 34.2943 16.3711L34.2953 16.3727C22.9389 25.9514 12.7087 27.9842 0.522494 22.8412C0.515028 22.8573 0.507529 22.8735 0.5 22.8896C1.86476 14.145 9.43792 7.45355 18.5758 7.45355C25.0827 7.45355 30.7962 10.8465 34.0396 15.9577C36.4849 14.1003 38.9986 11.9832 41.609 9.60984C41.9538 9.29627 42.3004 8.97824 42.6487 8.65574C42.4352 9.07566 42.2223 9.49053 42.0101 9.90038C40.0014 13.779 38.022 17.2704 36.047 20.2886C36.5824 22.0064 36.8708 23.8329 36.8708 25.7268Z" fill="#07689F"/>
</svg>
