<svg width="32" height="32" viewBox="0 0 32 32" fill="none" xmlns="http://www.w3.org/2000/svg">
<path d="M17.6419 0.565677C25.4576 1.35381 31.5 7.98729 31.5 16C31.5 24.5381 24.5381 31.5 16 31.5C7.46186 31.5 0.5 24.5381 0.5 16C0.5 7.46186 7.46186 0.5 16 0.5C16.5254 0.5 17.1165 0.499999 17.6419 0.565677ZM18.4301 30.3835C26.3771 29.0699 31.7627 21.517 30.4492 13.5042C29.3326 6.87076 23.947 2.01059 17.5763 1.35381C16.2627 1.22246 14.9492 1.22246 13.6356 1.48517C12.0593 1.74788 10.5487 2.2733 9.23517 2.99576C16.2627 5.36017 20.0064 8.97246 20.2691 12.7161C20.4004 15.0148 19.3496 16.6568 17.9047 18.036L27.822 17.3136C28.0847 17.3136 28.2161 17.642 27.822 17.7076L4.17797 24.5381C6.60805 27.8877 10.3517 30.0551 14.4894 30.5148C15.7373 30.6462 17.1165 30.6462 18.4301 30.3835ZM11.928 16.3284C13.2415 11.4682 11.7309 6.34534 8.18432 3.65254C3.38983 6.67373 0.565677 12.3877 1.55085 18.4301C1.87924 20.4004 2.6017 22.2394 3.58687 23.8157C7.39619 22.7648 10.7458 20.7288 11.928 16.3284Z" fill="white"/>
</svg>
