<svg width="17" height="16" viewBox="0 0 17 16" fill="none" xmlns="http://www.w3.org/2000/svg">
<path d="M10.4997 15.1663H6.49967C2.87967 15.1663 1.33301 13.6197 1.33301 9.99967V5.99967C1.33301 2.37967 2.87967 0.833008 6.49967 0.833008H10.4997C14.1197 0.833008 15.6663 2.37967 15.6663 5.99967V9.99967C15.6663 13.6197 14.1197 15.1663 10.4997 15.1663ZM6.49967 1.83301C3.42634 1.83301 2.33301 2.92634 2.33301 5.99967V9.99967C2.33301 13.073 3.42634 14.1663 6.49967 14.1663H10.4997C13.573 14.1663 14.6663 13.073 14.6663 9.99967V5.99967C14.6663 2.92634 13.573 1.83301 10.4997 1.83301H6.49967Z" fill="white"/>
<path d="M7.55297 10.3867C7.41964 10.3867 7.29297 10.3334 7.19964 10.2401L5.31297 8.3534C5.11964 8.16007 5.11964 7.84007 5.31297 7.64673C5.5063 7.4534 5.8263 7.4534 6.01964 7.64673L7.55297 9.18007L10.9796 5.7534C11.173 5.56007 11.493 5.56007 11.6863 5.7534C11.8796 5.94673 11.8796 6.26673 11.6863 6.46006L7.9063 10.2401C7.81297 10.3334 7.6863 10.3867 7.55297 10.3867Z" fill="white"/>
</svg>
