<svg width="24" height="24" viewBox="0 0 24 24" fill="none" xmlns="http://www.w3.org/2000/svg">
<path fill-rule="evenodd" clip-rule="evenodd" d="M2.03739 11.2928C8.23887 8.59095 12.3742 6.8097 14.4433 5.94909C20.351 3.49187 21.5786 3.06503 22.3787 3.05093C22.5547 3.04783 22.9481 3.09144 23.203 3.29826C23.4182 3.47289 23.4774 3.70879 23.5058 3.87435C23.5341 4.03992 23.5694 4.41709 23.5413 4.7118C23.2212 8.07554 21.8359 16.2385 21.1312 20.0059C20.833 21.6001 20.2458 22.1346 19.6774 22.1869C18.442 22.3006 17.504 21.3705 16.3075 20.5862C14.4352 19.3588 13.3774 18.5948 11.5601 17.3972C9.45976 16.0131 10.8213 15.2524 12.0183 14.0092C12.3315 13.6839 17.7745 8.73304 17.8799 8.28392C17.893 8.22775 17.9053 8.01838 17.7809 7.90782C17.6565 7.79726 17.4729 7.83507 17.3404 7.86514C17.1527 7.90776 14.1616 9.88471 8.3674 13.796C7.51841 14.379 6.74943 14.663 6.06044 14.6481C5.30089 14.6317 3.83981 14.2187 2.75365 13.8656C1.42144 13.4325 0.362616 13.2036 0.454816 12.4681C0.502839 12.0851 1.03036 11.6933 2.03739 11.2928Z" fill="#07689F"/>
</svg>
