<svg width="24" height="24" viewBox="0 0 24 24" fill="none" xmlns="http://www.w3.org/2000/svg">
<path d="M16 8C17.3807 8 18.5 6.8807 18.5 5.5C18.5 4.11929 17.3807 3 16 3C14.6193 3 13.5 4.11929 13.5 5.5C13.5 6.8807 14.6193 8 16 8Z" stroke="black" stroke-miterlimit="2"/>
<path d="M11.5 20L15.555 18.97C15.945 18.875 16.065 18.375 15.765 18.11L11.5 14.5L13.5 10.5L8.295 8.63C8.045 8.54 7.845 8.36 7.73 8.12L5.5 4" stroke="black" stroke-miterlimit="2" stroke-linecap="round" stroke-linejoin="round"/>
<path d="M11.5 14.5L8.01505 18.895C7.91005 19.02 7.78005 19.12 7.63005 19.18L2.5 21" stroke="black" stroke-miterlimit="2" stroke-linecap="round" stroke-linejoin="round"/>
<path d="M13.5 10.5L18.45 11.895C18.685 11.965 18.89 12.115 19.02 12.32L21 15.5" stroke="black" stroke-miterlimit="2" stroke-linecap="round" stroke-linejoin="round"/>
<path d="M9 4C9.82845 4 10.5 3.32842 10.5 2.5C10.5 1.67158 9.82845 1 9 1C8.17155 1 7.5 1.67158 7.5 2.5C7.5 3.32842 8.17155 4 9 4Z" fill="black"/>
</svg>
