<svg width="17" height="16" viewBox="0 0 17 16" fill="none" xmlns="http://www.w3.org/2000/svg">
<path d="M1.66797 1.33301H15.0013Z" fill="#4C9839"/>
<path d="M1.66797 1.33301H15.0013" stroke="black" stroke-linecap="round" stroke-linejoin="round"/>
<path d="M13 1.33301H3.66667C3.29848 1.33301 3 1.63148 3 1.99967V13.9997C3 14.3679 3.29848 14.6663 3.66667 14.6663H13C13.3682 14.6663 13.6667 14.3679 13.6667 13.9997V1.99967C13.6667 1.63148 13.3682 1.33301 13 1.33301Z" stroke="black" stroke-linejoin="round"/>
<path d="M7 10.667H9.66667V14.667H7V10.667Z" stroke="black" stroke-linecap="round" stroke-linejoin="round"/>
<path d="M5.33398 4H6.00065" stroke="black" stroke-linecap="round"/>
<path d="M5.33398 6H6.00065" stroke="black" stroke-linecap="round"/>
<path d="M8 4H8.66667" stroke="black" stroke-linecap="round"/>
<path d="M8 6H8.66667" stroke="black" stroke-linecap="round"/>
<path d="M10.668 4H11.3346" stroke="black" stroke-linecap="round"/>
<path d="M10.668 6H11.3346" stroke="black" stroke-linecap="round"/>
<path d="M1.66797 14.667H15.0013" stroke="black" stroke-linecap="round" stroke-linejoin="round"/>
<path d="M9.66721 10.667H10.3339C10.518 10.667 10.6705 10.5163 10.6353 10.3356C10.4511 9.38876 9.49085 8.66699 8.33388 8.66699C7.17691 8.66699 6.21665 9.38876 6.03241 10.3356C5.99728 10.5163 6.14978 10.667 6.33388 10.667H7.00055" stroke="black" stroke-linecap="round" stroke-linejoin="round"/>
</svg>
