<svg width="24" height="24" viewBox="0 0 24 24" fill="none" xmlns="http://www.w3.org/2000/svg">
<path d="M20.8901 10.3033C21.0165 9.4554 20.9751 8.58735 20.7658 7.7527C20.4893 6.6501 19.9199 5.6059 19.0577 4.74365C18.1954 3.88141 17.1512 3.31205 16.0487 3.03558C15.214 2.82629 14.3459 2.78484 13.498 2.91123" stroke="#043E5F" stroke-width="2" stroke-linecap="round" stroke-linejoin="round"/>
<path d="M17.0953 9.90173C17.2307 8.99343 16.9488 8.03493 16.2496 7.33573C15.5503 6.63653 14.5918 6.35458 13.6836 6.48998" stroke="#043E5F" stroke-width="2" stroke-linecap="round" stroke-linejoin="round"/>
<path d="M7.18735 4.39746C7.55065 4.39746 7.88535 4.59447 8.06165 4.91209L9.2849 7.1155C9.44505 7.404 9.45255 7.75295 9.305 8.0481L8.1266 10.4049C8.1266 10.4049 8.4681 12.1606 9.8973 13.5898C11.3265 15.019 13.0764 15.3546 13.0764 15.3546L15.4328 14.1764C15.7282 14.0287 16.0774 14.0364 16.366 14.1968L18.5756 15.4253C18.8929 15.6017 19.0897 15.9363 19.0897 16.2993V18.8361C19.0897 20.1279 17.8898 21.061 16.6657 20.6479C14.1518 19.7997 10.2494 18.1846 7.776 15.7111C5.30255 13.2377 3.68745 9.3354 2.83918 6.82145C2.42617 5.5974 3.35922 4.39746 4.65104 4.39746H7.18735Z" stroke="#043E5F" stroke-width="2" stroke-linejoin="round"/>
</svg>
