<svg width="20" height="20" viewBox="0 0 20 20" fill="none" xmlns="http://www.w3.org/2000/svg">
<g clip-path="url(#clip0_7331_2740)">
<path d="M9.99935 18.3337C12.3005 18.3337 14.3839 17.4009 15.8919 15.8929C17.3999 14.3848 18.3327 12.3015 18.3327 10.0003C18.3327 7.69916 17.3999 5.61583 15.8919 4.10777C14.3839 2.59973 12.3005 1.66699 9.99935 1.66699C7.69818 1.66699 5.61485 2.59973 4.10679 4.10777C2.59876 5.61583 1.66602 7.69916 1.66602 10.0003C1.66602 12.3015 2.59876 14.3848 4.10679 15.8929C5.61485 17.4009 7.69818 18.3337 9.99935 18.3337Z" stroke="#043E5F" stroke-width="2" stroke-linejoin="round"/>
<path d="M10 11.9274V10.2607C11.3807 10.2607 12.5 9.14145 12.5 7.76074C12.5 6.38003 11.3807 5.26074 10 5.26074C8.61929 5.26074 7.5 6.38003 7.5 7.76074" stroke="#043E5F" stroke-width="2" stroke-linecap="round" stroke-linejoin="round"/>
<path fill-rule="evenodd" clip-rule="evenodd" d="M10.0007 15.6771C10.5759 15.6771 11.0423 15.2107 11.0423 14.6354C11.0423 14.0601 10.5759 13.5938 10.0007 13.5938C9.42536 13.5938 8.95898 14.0601 8.95898 14.6354C8.95898 15.2107 9.42536 15.6771 10.0007 15.6771Z" fill="#043E5F"/>
</g>
<defs>
<clipPath id="clip0_7331_2740">
<rect width="20" height="20" fill="white"/>
</clipPath>
</defs>
</svg>
