<svg width="14" height="18" viewBox="0 0 14 18" fill="none" xmlns="http://www.w3.org/2000/svg">
<path d="M7.15384 17.25C7.20412 17.25 7.24427 17.2361 7.26472 17.228C7.28842 17.2187 7.3095 17.2075 7.32647 17.1975C7.36044 17.1777 7.39575 17.1523 7.43009 17.1257C7.49968 17.0716 7.58552 16.996 7.68326 16.904C7.87979 16.719 8.13868 16.4541 8.43723 16.1286C9.03482 15.477 9.79931 14.5735 10.5535 13.5617C11.3072 12.5506 12.0545 11.4261 12.6145 10.3329C13.1712 9.24609 13.5577 8.16206 13.5577 7.23999C13.5577 3.65895 10.6938 0.75 7.15384 0.75C3.61383 0.75 0.75 3.65895 0.75 7.23999C0.75 8.16206 1.13649 9.24609 1.69317 10.3329C2.25316 11.4261 3.00049 12.5506 3.75418 13.5617C4.50837 14.5735 5.27286 15.477 5.87046 16.1286C6.16901 16.4541 6.42789 16.719 6.62443 16.904C6.72217 16.996 6.80801 17.0716 6.8776 17.1257C6.91193 17.1523 6.94724 17.1777 6.98122 17.1975C6.99818 17.2075 7.01926 17.2187 7.04296 17.228C7.06341 17.2361 7.10356 17.25 7.15384 17.25ZM10.0239 7.19732C10.0239 8.80979 8.73564 10.111 7.15385 10.111C5.57207 10.111 4.28385 8.80979 4.28385 7.19732C4.28385 5.58485 5.57206 4.28364 7.15385 4.28364C8.73565 4.28364 10.0239 5.58485 10.0239 7.19732Z" fill="#07689F" stroke="white" stroke-width="0.5"/>
</svg>
