<svg width="40" height="40" viewBox="0 0 40 40" fill="none" xmlns="http://www.w3.org/2000/svg">
<rect x="40" y="40" width="40" height="40" rx="4" transform="rotate(-180 40 40)" fill="#EFEFEF"/>
<path d="M37 37.7305H35.5816V36.312H37V37.7305ZM35.5816 37.7305H34.1631V36.312H35.5816V37.7305ZM34.1631 37.7305H32.7447V36.312H34.1631V37.7305ZM32.7447 37.7305H31.3262V36.312H32.7447V37.7305ZM31.3262 37.7305H29.9078V36.312H31.3262V37.7305ZM29.9078 37.7305H28.4894V36.312H29.9078V37.7305ZM28.4894 37.7305H27.0709V36.312H28.4894V37.7305ZM21.3972 37.7305H19.9787V36.312H21.3972V37.7305ZM17.1418 37.7305H15.7234V36.312H17.1418V37.7305ZM15.7234 37.7305H14.305V36.312H15.7234V37.7305ZM14.305 37.7305H12.8865V36.312H14.305V37.7305ZM11.4681 37.7305H10.0496V36.312H11.4681V37.7305ZM10.0496 37.7305H8.6312V36.312H10.0496V37.7305ZM8.6312 37.7305L7.21276 37.7305V36.312H8.6312V37.7305ZM7.21276 37.7305H5.79432V36.312L7.21276 36.312V37.7305ZM5.79432 37.7305H4.37589V36.312H5.79432V37.7305ZM4.37589 37.7305H2.95745V36.312H4.37589V37.7305ZM2.95745 37.7305H1.53901V36.312H2.95745V37.7305ZM37 36.312H35.5816V34.8936H37V36.312ZM28.4894 36.312H27.0709V34.8936H28.4894V36.312ZM24.234 36.312H22.8156V34.8936H24.234V36.312ZM18.5603 36.312H17.1418V34.8936H18.5603V36.312ZM17.1418 36.312H15.7234V34.8936H17.1418V36.312ZM14.305 36.312H12.8865V34.8936H14.305V36.312ZM11.4681 36.312H10.0496V34.8936H11.4681V36.312ZM2.95745 36.312H1.53901V34.8936H2.95745V36.312ZM37 34.8936H35.5816V33.4751H37V34.8936ZM34.1631 34.8936H32.7447V33.4751H34.1631V34.8936ZM32.7447 34.8936H31.3262V33.4751H32.7447V34.8936ZM31.3262 34.8936H29.9078V33.4751H31.3262V34.8936ZM28.4894 34.8936H27.0709V33.4751H28.4894V34.8936ZM24.234 34.8936H22.8156V33.4751H24.234V34.8936ZM22.8156 34.8936H21.3972V33.4751H22.8156V34.8936ZM19.9787 34.8936H18.5603V33.4751H19.9787V34.8936ZM17.1418 34.8936H15.7234V33.4751H17.1418V34.8936ZM15.7234 34.8936H14.305V33.4751H15.7234V34.8936ZM11.4681 34.8936H10.0496V33.4751H11.4681V34.8936ZM8.6312 34.8936H7.21276V33.4751H8.6312V34.8936ZM7.21276 34.8936L5.79432 34.8936V33.4751H7.21276V34.8936ZM5.79432 34.8936H4.37589V33.4751H5.79432V34.8936ZM2.95745 34.8936H1.53901V33.4751H2.95745V34.8936ZM37 33.4751H35.5816V32.0567H37V33.4751ZM34.1631 33.4751H32.7447V32.0567H34.1631V33.4751ZM32.7447 33.4751H31.3262V32.0567H32.7447V33.4751ZM31.3262 33.4751H29.9078V32.0567H31.3262V33.4751ZM28.4894 33.4751H27.0709V32.0567H28.4894V33.4751ZM25.6525 33.4751H24.234V32.0567H25.6525V33.4751ZM24.234 33.4751H22.8156V32.0567H24.234V33.4751ZM19.9787 33.4751H18.5603V32.0567H19.9787V33.4751ZM17.1418 33.4751H15.7234V32.0567H17.1418V33.4751ZM15.7234 33.4751H14.305V32.0567H15.7234V33.4751ZM11.4681 33.4751H10.0496V32.0567H11.4681V33.4751ZM8.6312 33.4751H7.21276V32.0567H8.6312V33.4751ZM7.21276 33.4751H5.79432V32.0567H7.21276V33.4751ZM5.79432 33.4751H4.37589V32.0567H5.79432V33.4751ZM2.95745 33.4751H1.53901V32.0567H2.95745V33.4751ZM37 32.0567H35.5816V30.6383H37V32.0567ZM34.1631 32.0567H32.7447V30.6383H34.1631V32.0567ZM32.7447 32.0567H31.3262V30.6383H32.7447V32.0567ZM31.3262 32.0567H29.9078V30.6383H31.3262V32.0567ZM28.4894 32.0567H27.0709V30.6383H28.4894V32.0567ZM22.8156 32.0567H21.3972V30.6383H22.8156V32.0567ZM21.3972 32.0567H19.9787V30.6383H21.3972V32.0567ZM19.9787 32.0567H18.5603V30.6383L19.9787 30.6383V32.0567ZM18.5603 32.0567H17.1418V30.6383H18.5603V32.0567ZM17.1418 32.0567H15.7234V30.6383H17.1418V32.0567ZM11.4681 32.0567H10.0496V30.6383H11.4681V32.0567ZM8.6312 32.0567H7.21276V30.6383H8.6312V32.0567ZM7.21276 32.0567H5.79432V30.6383H7.21276V32.0567ZM5.79432 32.0567H4.37589V30.6383H5.79432V32.0567ZM2.95745 32.0567H1.53901V30.6383H2.95745V32.0567ZM37 30.6383H35.5816V29.2198H37V30.6383ZM28.4894 30.6383H27.0709V29.2198H28.4894V30.6383ZM25.6525 30.6383H24.234V29.2198H25.6525V30.6383ZM21.3972 30.6383H19.9787V29.2198H21.3972V30.6383ZM14.305 30.6383H12.8865V29.2198H14.305V30.6383ZM11.4681 30.6383H10.0496V29.2198H11.4681V30.6383ZM2.95745 30.6383H1.53901V29.2198H2.95745V30.6383ZM37 29.2198H35.5816V27.8014H37V29.2198ZM35.5816 29.2198H34.1631V27.8014H35.5816V29.2198ZM34.1631 29.2198H32.7447V27.8014H34.1631V29.2198ZM32.7447 29.2198H31.3262V27.8014H32.7447V29.2198ZM31.3262 29.2198H29.9078V27.8014H31.3262V29.2198ZM29.9078 29.2198H28.4894V27.8014H29.9078V29.2198ZM28.4894 29.2198H27.0709V27.8014H28.4894V29.2198ZM25.6525 29.2198H24.234V27.8014H25.6525V29.2198ZM22.8156 29.2198H21.3972V27.8014H22.8156V29.2198ZM19.9787 29.2198H18.5603V27.8014H19.9787V29.2198ZM17.1418 29.2198H15.7234V27.8014H17.1418V29.2198ZM14.305 29.2198H12.8865V27.8014H14.305V29.2198ZM11.4681 29.2198H10.0496V27.8014H11.4681V29.2198ZM10.0496 29.2198H8.6312V27.8014H10.0496V29.2198ZM8.6312 29.2198H7.21276V27.8014H8.6312V29.2198ZM7.21276 29.2198H5.79432V27.8014H7.21276V29.2198ZM5.79432 29.2198H4.37589V27.8014H5.79432V29.2198ZM4.37589 29.2198H2.95745V27.8014H4.37589V29.2198ZM2.95745 29.2198H1.53901V27.8014H2.95745V29.2198ZM25.6525 27.8014H24.234V26.383H25.6525V27.8014ZM24.234 27.8014H22.8156V26.383H24.234V27.8014ZM22.8156 27.8014H21.3972V26.383H22.8156V27.8014ZM17.1418 27.8014H15.7234V26.383H17.1418V27.8014ZM15.7234 27.8014L14.305 27.8014V26.383L15.7234 26.383V27.8014ZM14.305 27.8014H12.8865V26.383H14.305V27.8014ZM35.5816 26.383H34.1631V24.9645H35.5816V26.383ZM34.1631 26.383H32.7447V24.9645H34.1631V26.383ZM28.4894 26.383H27.0709V24.9645H28.4894V26.383ZM18.5603 26.383H17.1418V24.9645H18.5603V26.383ZM17.1418 26.383H15.7234V24.9645H17.1418V26.383ZM14.305 26.383H12.8865V24.9645H14.305V26.383ZM11.4681 26.383H10.0496V24.9645H11.4681V26.383ZM10.0496 26.383H8.6312V24.9645H10.0496V26.383ZM7.21276 26.383H5.79432V24.9645H7.21276V26.383ZM35.5816 24.9645H34.1631V23.5461H35.5816V24.9645ZM34.1631 24.9645H32.7447V23.5461H34.1631V24.9645ZM31.3262 24.9645H29.9078V23.5461H31.3262V24.9645ZM27.0709 24.9645H25.6525V23.5461H27.0709V24.9645ZM22.8156 24.9645H21.3972V23.5461H22.8156V24.9645ZM21.3972 24.9645H19.9787V23.5461H21.3972V24.9645ZM19.9787 24.9645H18.5603V23.5461H19.9787V24.9645ZM18.5603 24.9645H17.1418V23.5461H18.5603V24.9645ZM17.1418 24.9645H15.7234V23.5461H17.1418V24.9645ZM15.7234 24.9645L14.305 24.9645V23.5461L15.7234 23.5461V24.9645ZM14.305 24.9645H12.8865V23.5461H14.305V24.9645ZM11.4681 24.9645H10.0496V23.5461H11.4681V24.9645ZM10.0496 24.9645H8.6312V23.5461H10.0496V24.9645ZM7.21276 24.9645H5.79432V23.5461H7.21276V24.9645ZM4.37589 24.9645H2.95745V23.5461H4.37589V24.9645ZM2.95745 24.9645H1.53901V23.5461H2.95745V24.9645ZM28.4894 23.5461H27.0709V22.1276H28.4894V23.5461ZM21.3972 23.5461H19.9787L19.9787 22.1276H21.3972V23.5461ZM15.7234 23.5461L14.305 23.5461L14.305 22.1276L15.7234 22.1276L15.7234 23.5461ZM12.8865 23.5461H11.4681L11.4681 22.1276H12.8865L12.8865 23.5461ZM10.0496 23.5461H8.6312L8.6312 22.1276H10.0496L10.0496 23.5461ZM7.21276 23.5461H5.79432L5.79432 22.1276H7.21276L7.21276 23.5461ZM5.79432 23.5461H4.37589V22.1276H5.79432L5.79432 23.5461ZM2.95745 23.5461H1.53901V22.1276H2.95745V23.5461ZM37 22.1276H35.5816V20.7092H37V22.1276ZM35.5816 22.1276H34.1631V20.7092H35.5816V22.1276ZM31.3262 22.1276H29.9078V20.7092H31.3262V22.1276ZM27.0709 22.1276H25.6525V20.7092H27.0709V22.1276ZM24.234 22.1276H22.8156V20.7092H24.234V22.1276ZM22.8156 22.1276H21.3972V20.7092L22.8156 20.7092V22.1276ZM18.5603 22.1276H17.1418V20.7092H18.5603V22.1276ZM15.7234 22.1276L14.305 22.1276V20.7092H15.7234V22.1276ZM12.8865 22.1276H11.4681V20.7092H12.8865V22.1276ZM10.0496 22.1276H8.6312V20.7092H10.0496V22.1276ZM7.21276 22.1276H5.79432V20.7092H7.21276V22.1276ZM37 20.7092H35.5816V19.2908H37V20.7092ZM35.5816 20.7092H34.1631V19.2908H35.5816V20.7092ZM32.7447 20.7092H31.3262L31.3262 19.2908H32.7447V20.7092ZM28.4894 20.7092H27.0709V19.2908H28.4894V20.7092ZM27.0709 20.7092H25.6525V19.2908H27.0709V20.7092ZM25.6525 20.7092H24.234V19.2908H25.6525V20.7092ZM24.234 20.7092H22.8156V19.2908H24.234V20.7092ZM22.8156 20.7092L21.3972 20.7092V19.2908L22.8156 19.2908V20.7092ZM18.5603 20.7092H17.1418V19.2908H18.5603V20.7092ZM15.7234 20.7092H14.305V19.2908H15.7234V20.7092ZM14.305 20.7092H12.8865V19.2908H14.305V20.7092ZM11.4681 20.7092H10.0496V19.2908H11.4681V20.7092ZM10.0496 20.7092H8.6312V19.2908H10.0496V20.7092ZM2.95745 20.7092H1.53901V19.2908H2.95745V20.7092ZM34.1631 19.2908H32.7447V17.8723H34.1631V19.2908ZM32.7447 19.2908H31.3262V17.8723H32.7447V19.2908ZM31.3262 19.2908H29.9078V17.8723H31.3262V19.2908ZM22.8156 19.2908L21.3972 19.2908V17.8723L22.8156 17.8723V19.2908ZM21.3972 19.2908H19.9787V17.8723H21.3972V19.2908ZM19.9787 19.2908H18.5603V17.8723H19.9787V19.2908ZM15.7234 19.2908H14.305V17.8723H15.7234V19.2908ZM14.305 19.2908H12.8865V17.8723H14.305V19.2908ZM11.4681 19.2908H10.0496V17.8723H11.4681V19.2908ZM10.0496 19.2908H8.6312V17.8723H10.0496V19.2908ZM4.37589 19.2908H2.95745V17.8723H4.37589V19.2908ZM2.95745 19.2908H1.53901V17.8723H2.95745V19.2908ZM37 17.8723H35.5816V16.4539H37V17.8723ZM35.5816 17.8723H34.1631V16.4539H35.5816V17.8723ZM32.7447 17.8723H31.3262V16.4539H32.7447V17.8723ZM29.9078 17.8723H28.4894V16.4539H29.9078V17.8723ZM28.4894 17.8723H27.0709V16.4539H28.4894V17.8723ZM25.6525 17.8723H24.234V16.4539H25.6525V17.8723ZM24.234 17.8723H22.8156V16.4539H24.234V17.8723ZM22.8156 17.8723L21.3972 17.8723V16.4539L22.8156 16.4539V17.8723ZM19.9787 17.8723H18.5603V16.4539H19.9787V17.8723ZM15.7234 17.8723H14.305V16.4539H15.7234V17.8723ZM14.305 17.8723H12.8865V16.4539H14.305V17.8723ZM11.4681 17.8723H10.0496V16.4539H11.4681V17.8723ZM7.21276 17.8723H5.79432V16.4539H7.21276V17.8723ZM5.79432 17.8723H4.37589V16.4539H5.79432V17.8723ZM2.95745 17.8723H1.53901V16.4539H2.95745V17.8723ZM34.1631 16.4539H32.7447V15.0354H34.1631V16.4539ZM32.7447 16.4539H31.3262V15.0354H32.7447V16.4539ZM31.3262 16.4539H29.9078V15.0354H31.3262V16.4539ZM27.0709 16.4539H25.6525L25.6525 15.0354H27.0709L27.0709 16.4539ZM22.8156 16.4539L21.3972 16.4539L21.3972 15.0354L22.8156 15.0354L22.8156 16.4539ZM17.1418 16.4539H15.7234V15.0354H17.1418V16.4539ZM15.7234 16.4539H14.305V15.0354H15.7234V16.4539ZM14.305 16.4539H12.8865V15.0354H14.305V16.4539ZM12.8865 16.4539H11.4681V15.0354H12.8865V16.4539ZM11.4681 16.4539H10.0496V15.0354H11.4681V16.4539ZM10.0496 16.4539H8.6312V15.0354H10.0496V16.4539ZM8.6312 16.4539H7.21276V15.0354H8.6312V16.4539ZM7.21276 16.4539H5.79432V15.0354H7.21276V16.4539ZM37 15.0354H35.5816V13.617H37V15.0354ZM35.5816 15.0354H34.1631V13.617H35.5816V15.0354ZM34.1631 15.0354H32.7447V13.617H34.1631V15.0354ZM31.3262 15.0354H29.9078V13.617H31.3262V15.0354ZM28.4894 15.0354H27.0709V13.617H28.4894V15.0354ZM25.6525 15.0354H24.234V13.617H25.6525V15.0354ZM21.3972 15.0354H19.9787V13.617H21.3972V15.0354ZM14.305 15.0354H12.8865V13.617H14.305V15.0354ZM12.8865 15.0354H11.4681V13.617H12.8865V15.0354ZM11.4681 15.0354H10.0496V13.617H11.4681V15.0354ZM10.0496 15.0354H8.6312V13.617H10.0496V15.0354ZM8.6312 15.0354H7.21276V13.617H8.6312V15.0354ZM4.37589 15.0354H2.95745V13.617H4.37589V15.0354ZM25.6525 13.617H24.234V12.1986H25.6525V13.617ZM24.234 13.617H22.8156V12.1986H24.234V13.617ZM22.8156 13.617L21.3972 13.617V12.1986L22.8156 12.1986V13.617ZM21.3972 13.617H19.9787V12.1986H21.3972V13.617ZM18.5603 13.617H17.1418V12.1986H18.5603V13.617ZM17.1418 13.617H15.7234V12.1986H17.1418V13.617ZM14.305 13.617H12.8865V12.1986H14.305V13.617ZM8.6312 13.617H7.21276V12.1986H8.6312V13.617ZM2.95745 13.617H1.53901V12.1986H2.95745V13.617ZM37 12.1986H35.5816V10.7801H37V12.1986ZM35.5816 12.1986H34.1631V10.7801H35.5816V12.1986ZM34.1631 12.1986H32.7447V10.7801H34.1631V12.1986ZM32.7447 12.1986H31.3262V10.7801H32.7447V12.1986ZM31.3262 12.1986H29.9078V10.7801H31.3262V12.1986ZM29.9078 12.1986H28.4894V10.7801H29.9078V12.1986ZM28.4894 12.1986H27.0709V10.7801H28.4894V12.1986ZM22.8156 12.1986L21.3972 12.1986V10.7801L22.8156 10.7801V12.1986ZM21.3972 12.1986H19.9787V10.7801H21.3972V12.1986ZM17.1418 12.1986H15.7234V10.7801H17.1418V12.1986ZM14.305 12.1986H12.8865V10.7801H14.305V12.1986ZM11.4681 12.1986H10.0496V10.7801H11.4681V12.1986ZM8.6312 12.1986H7.21276V10.7801H8.6312V12.1986ZM2.95745 12.1986H1.53901V10.7801H2.95745V12.1986ZM37 10.7801H35.5816V9.36167H37V10.7801ZM28.4894 10.7801H27.0709V9.36167H28.4894V10.7801ZM24.234 10.7801H22.8156V9.36167H24.234V10.7801ZM22.8156 10.7801L21.3972 10.7801V9.36167L22.8156 9.36167V10.7801ZM19.9787 10.7801H18.5603V9.36167H19.9787V10.7801ZM18.5603 10.7801H17.1418V9.36167H18.5603V10.7801ZM14.305 10.7801H12.8865V9.36167H14.305V10.7801ZM8.6312 10.7801H7.21276V9.36167H8.6312V10.7801ZM4.37589 10.7801H2.95745V9.36167H4.37589V10.7801ZM37 9.36167H35.5816V7.94323H37L37 9.36167ZM34.1631 9.36167H32.7447V7.94323H34.1631V9.36167ZM32.7447 9.36167H31.3262V7.94323H32.7447V9.36167ZM31.3262 9.36167H29.9078V7.94323H31.3262V9.36167ZM28.4894 9.36167H27.0709V7.94323H28.4894V9.36167ZM24.234 9.36167H22.8156V7.94323H24.234V9.36167ZM22.8156 9.36167L21.3972 9.36167V7.94323L22.8156 7.94323V9.36167ZM17.1418 9.36167H15.7234V7.94323H17.1418V9.36167ZM15.7234 9.36167H14.305V7.94323H15.7234V9.36167ZM14.305 9.36167H12.8865V7.94323H14.305V9.36167ZM12.8865 9.36167H11.4681V7.94323H12.8865V9.36167ZM11.4681 9.36167H10.0496V7.94323H11.4681V9.36167ZM10.0496 9.36167H8.6312V7.94323H10.0496V9.36167ZM8.6312 9.36167H7.21276V7.94323H8.6312V9.36167ZM4.37589 9.36167H2.95745L2.95745 7.94323H4.37589L4.37589 9.36167ZM2.95745 9.36167H1.53901L1.53901 7.94323H2.95745L2.95745 9.36167ZM37 7.94323H35.5816L35.5816 6.52479H37V7.94323ZM34.1631 7.94323H32.7447V6.52479H34.1631L34.1631 7.94323ZM32.7447 7.94323H31.3262V6.52479H32.7447V7.94323ZM31.3262 7.94323H29.9078V6.52479H31.3262V7.94323ZM28.4894 7.94323H27.0709V6.52479H28.4894V7.94323ZM24.234 7.94323H22.8156V6.52479H24.234V7.94323ZM22.8156 7.94323L21.3972 7.94323V6.52479L22.8156 6.52479V7.94323ZM21.3972 7.94323H19.9787V6.52479H21.3972V7.94323ZM19.9787 7.94323H18.5603V6.52479H19.9787V7.94323ZM15.7234 7.94323H14.305V6.52479H15.7234V7.94323ZM12.8865 7.94323H11.4681V6.52479H12.8865V7.94323ZM8.6312 7.94323H7.21276V6.52479H8.6312V7.94323ZM5.79432 7.94323H4.37589V6.52479H5.79432V7.94323ZM4.37589 7.94323H2.95745V6.52479H4.37589V7.94323ZM37 6.52479H35.5816V5.10635H37V6.52479ZM34.1631 6.52479H32.7447V5.10635H34.1631V6.52479ZM32.7447 6.52479H31.3262V5.10635H32.7447V6.52479ZM31.3262 6.52479H29.9078V5.10635H31.3262V6.52479ZM28.4894 6.52479H27.0709V5.10635H28.4894V6.52479ZM25.6525 6.52479H24.234V5.10635H25.6525V6.52479ZM18.5603 6.52479H17.1418V5.10635H18.5603V6.52479ZM17.1418 6.52479H15.7234V5.10635H17.1418V6.52479ZM15.7234 6.52479H14.305V5.10635H15.7234V6.52479ZM14.305 6.52479H12.8865V5.10635H14.305V6.52479ZM12.8865 6.52479H11.4681V5.10635H12.8865V6.52479ZM10.0496 6.52479H8.6312V5.10635H10.0496V6.52479ZM8.6312 6.52479H7.21276V5.10635L8.6312 5.10635V6.52479ZM7.21276 6.52479H5.79432V5.10635H7.21276V6.52479ZM4.37589 6.52479H2.95745V5.10635H4.37589V6.52479ZM2.95745 6.52479H1.53901V5.10635H2.95745V6.52479ZM37 5.10635H35.5816V3.68792H37V5.10635ZM28.4894 5.10635H27.0709V3.68792H28.4894V5.10635ZM25.6525 5.10635H24.234V3.68792H25.6525V5.10635ZM24.234 5.10635H22.8156V3.68792H24.234V5.10635ZM22.8156 5.10635H21.3972V3.68792H22.8156V5.10635ZM18.5603 5.10635H17.1418V3.68792H18.5603V5.10635ZM14.305 5.10635H12.8865V3.68792H14.305V5.10635ZM12.8865 5.10635H11.4681V3.68792H12.8865V5.10635ZM11.4681 5.10635H10.0496V3.68792H11.4681V5.10635ZM10.0496 5.10635H8.6312V3.68792H10.0496V5.10635ZM8.6312 5.10635L7.21276 5.10635V3.68792L8.6312 3.68792V5.10635ZM37 3.68792H35.5816V2.26947H37V3.68792ZM35.5816 3.68792H34.1631V2.26947H35.5816V3.68792ZM34.1631 3.68792H32.7447V2.26947H34.1631V3.68792ZM32.7447 3.68792H31.3262V2.26947H32.7447V3.68792ZM31.3262 3.68792H29.9078V2.26947H31.3262V3.68792ZM29.9078 3.68792H28.4894V2.26947H29.9078V3.68792ZM28.4894 3.68792H27.0709V2.26947H28.4894V3.68792ZM22.8156 3.68792H21.3972V2.26947H22.8156V3.68792ZM19.9787 3.68792H18.5603V2.26947H19.9787V3.68792ZM14.305 3.68792H12.8865V2.26947H14.305V3.68792ZM11.4681 3.68792H10.0496V2.26947H11.4681V3.68792ZM7.21276 3.68792H5.79432V2.26947H7.21276V3.68792ZM2.95745 3.68792H1.53901V2.26947H2.95745V3.68792Z" fill="black"/>
</svg>
