<svg width="41" height="40" viewBox="0 0 41 40" fill="none" xmlns="http://www.w3.org/2000/svg">
<rect x="41" y="40" width="41" height="40" rx="4" transform="rotate(-180 41 40)" fill="#EFEFEF"/>
<path d="M37.9258 37.7305H36.4719V36.312H37.9258V37.7305ZM36.4719 37.7305H35.018V36.312H36.4719V37.7305ZM35.018 37.7305H33.5641V36.312H35.018V37.7305ZM33.5641 37.7305H32.1102V36.312H33.5641V37.7305ZM32.1102 37.7305H30.6563V36.312H32.1102V37.7305ZM30.6563 37.7305H29.2024V36.312H30.6563V37.7305ZM29.2024 37.7305H27.7485V36.312H29.2024V37.7305ZM21.9329 37.7305H20.479V36.312H21.9329V37.7305ZM17.5712 37.7305H16.1173V36.312H17.5712V37.7305ZM16.1173 37.7305H14.6634V36.312H16.1173V37.7305ZM14.6634 37.7305H13.2095V36.312H14.6634V37.7305ZM11.7556 37.7305H10.3017V36.312H11.7556V37.7305ZM10.3017 37.7305L8.84776 37.7305V36.312H10.3017V37.7305ZM8.84776 37.7305H7.39387V36.312L8.84776 36.312V37.7305ZM7.39387 37.7305H5.93996V36.312H7.39387V37.7305ZM5.93996 37.7305H4.48606V36.312H5.93996V37.7305ZM4.48606 37.7305H3.03216V36.312H4.48606V37.7305ZM3.03216 37.7305H1.57826V36.312H3.03216V37.7305ZM37.9258 36.312H36.4719V34.8936H37.9258V36.312ZM29.2024 36.312H27.7485V34.8936H29.2024V36.312ZM24.8407 36.312H23.3868V34.8936H24.8407V36.312ZM19.0251 36.312H17.5712V34.8936H19.0251V36.312ZM17.5712 36.312H16.1173V34.8936H17.5712V36.312ZM14.6634 36.312H13.2095V34.8936H14.6634V36.312ZM11.7556 36.312H10.3017V34.8936H11.7556V36.312ZM3.03216 36.312H1.57826V34.8936H3.03216V36.312ZM37.9258 34.8936H36.4719V33.4751H37.9258V34.8936ZM35.018 34.8936H33.5641V33.4751H35.018V34.8936ZM33.5641 34.8936H32.1102V33.4751H33.5641V34.8936ZM32.1102 34.8936H30.6563V33.4751H32.1102V34.8936ZM29.2024 34.8936H27.7485V33.4751H29.2024V34.8936ZM24.8407 34.8936H23.3868V33.4751H24.8407V34.8936ZM23.3868 34.8936H21.9329V33.4751H23.3868V34.8936ZM20.479 34.8936H19.0251V33.4751H20.479V34.8936ZM17.5712 34.8936H16.1173V33.4751H17.5712V34.8936ZM16.1173 34.8936H14.6634V33.4751H16.1173V34.8936ZM11.7556 34.8936H10.3017V33.4751H11.7556V34.8936ZM8.84776 34.8936H7.39387V33.4751H8.84776V34.8936ZM7.39387 34.8936L5.93996 34.8936V33.4751H7.39387V34.8936ZM5.93996 34.8936H4.48606V33.4751L5.93996 33.4751V34.8936ZM3.03216 34.8936H1.57826V33.4751H3.03216V34.8936ZM37.9258 33.4751H36.4719V32.0567H37.9258V33.4751ZM35.018 33.4751H33.5641V32.0567H35.018V33.4751ZM33.5641 33.4751H32.1102V32.0567H33.5641V33.4751ZM32.1102 33.4751H30.6563V32.0567H32.1102V33.4751ZM29.2024 33.4751H27.7485V32.0567H29.2024V33.4751ZM26.2946 33.4751H24.8407V32.0567H26.2946V33.4751ZM24.8407 33.4751H23.3868V32.0567H24.8407V33.4751ZM20.479 33.4751H19.0251V32.0567H20.479V33.4751ZM17.5712 33.4751H16.1173V32.0567H17.5712V33.4751ZM16.1173 33.4751H14.6634V32.0567H16.1173V33.4751ZM11.7556 33.4751H10.3017V32.0567H11.7556V33.4751ZM8.84776 33.4751H7.39387V32.0567H8.84776V33.4751ZM7.39387 33.4751H5.93996V32.0567H7.39387V33.4751ZM5.93996 33.4751L4.48606 33.4751V32.0567L5.93996 32.0567V33.4751ZM3.03216 33.4751H1.57826V32.0567H3.03216V33.4751ZM37.9258 32.0567H36.4719V30.6383H37.9258V32.0567ZM35.018 32.0567H33.5641V30.6383H35.018V32.0567ZM33.5641 32.0567H32.1102V30.6383H33.5641V32.0567ZM32.1102 32.0567H30.6563V30.6383H32.1102V32.0567ZM29.2024 32.0567H27.7485V30.6383H29.2024V32.0567ZM23.3868 32.0567H21.9329V30.6383H23.3868V32.0567ZM21.9329 32.0567H20.479V30.6383H21.9329V32.0567ZM20.479 32.0567H19.0251V30.6383L20.479 30.6383V32.0567ZM19.0251 32.0567H17.5712V30.6383H19.0251V32.0567ZM17.5712 32.0567H16.1173V30.6383H17.5712V32.0567ZM11.7556 32.0567H10.3017V30.6383H11.7556V32.0567ZM8.84776 32.0567H7.39387V30.6383H8.84776V32.0567ZM7.39387 32.0567H5.93996V30.6383H7.39387V32.0567ZM5.93996 32.0567L4.48606 32.0567V30.6383H5.93996V32.0567ZM3.03216 32.0567H1.57826V30.6383H3.03216V32.0567ZM37.9258 30.6383H36.4719V29.2198H37.9258V30.6383ZM29.2024 30.6383H27.7485V29.2198H29.2024V30.6383ZM26.2946 30.6383H24.8407V29.2198H26.2946V30.6383ZM21.9329 30.6383H20.479V29.2198H21.9329V30.6383ZM14.6634 30.6383H13.2095V29.2198H14.6634V30.6383ZM11.7556 30.6383H10.3017V29.2198H11.7556V30.6383ZM3.03216 30.6383H1.57826V29.2198L3.03216 29.2198V30.6383ZM37.9258 29.2198H36.4719V27.8014H37.9258V29.2198ZM36.4719 29.2198H35.018V27.8014H36.4719V29.2198ZM35.018 29.2198H33.5641V27.8014H35.018V29.2198ZM33.5641 29.2198H32.1102V27.8014H33.5641V29.2198ZM32.1102 29.2198H30.6563V27.8014H32.1102V29.2198ZM30.6563 29.2198H29.2024V27.8014H30.6563V29.2198ZM29.2024 29.2198H27.7485V27.8014H29.2024V29.2198ZM26.2946 29.2198H24.8407V27.8014H26.2946V29.2198ZM23.3868 29.2198H21.9329V27.8014H23.3868V29.2198ZM20.479 29.2198H19.0251V27.8014H20.479V29.2198ZM17.5712 29.2198L16.1173 29.2198V27.8014L17.5712 27.8014V29.2198ZM14.6634 29.2198H13.2095V27.8014H14.6634V29.2198ZM11.7556 29.2198H10.3017V27.8014H11.7556V29.2198ZM10.3017 29.2198H8.84776V27.8014H10.3017V29.2198ZM8.84776 29.2198H7.39387V27.8014H8.84776V29.2198ZM7.39387 29.2198H5.93996V27.8014H7.39387V29.2198ZM5.93996 29.2198H4.48606V27.8014H5.93996V29.2198ZM4.48606 29.2198H3.03216V27.8014H4.48606V29.2198ZM3.03216 29.2198L1.57826 29.2198V27.8014L3.03216 27.8014V29.2198ZM26.2946 27.8014H24.8407V26.383H26.2946V27.8014ZM24.8407 27.8014H23.3868V26.383H24.8407V27.8014ZM23.3868 27.8014H21.9329V26.383H23.3868V27.8014ZM17.5712 27.8014L16.1173 27.8014V26.383L17.5712 26.383V27.8014ZM16.1173 27.8014H14.6634V26.383H16.1173V27.8014ZM14.6634 27.8014H13.2095V26.383H14.6634V27.8014ZM36.4719 26.383H35.018V24.9645H36.4719V26.383ZM35.018 26.383H33.5641V24.9645H35.018V26.383ZM29.2024 26.383H27.7485V24.9645H29.2024V26.383ZM19.0251 26.383H17.5712V24.9645H19.0251V26.383ZM17.5712 26.383L16.1173 26.383V24.9645L17.5712 24.9645V26.383ZM14.6634 26.383H13.2095V24.9645H14.6634V26.383ZM11.7556 26.383H10.3017V24.9645H11.7556V26.383ZM10.3017 26.383H8.84776V24.9645H10.3017V26.383ZM7.39387 26.383H5.93996V24.9645H7.39387V26.383ZM36.4719 24.9645H35.018V23.5461H36.4719V24.9645ZM35.018 24.9645H33.5641V23.5461H35.018V24.9645ZM32.1102 24.9645H30.6563V23.5461H32.1102V24.9645ZM27.7485 24.9645H26.2946V23.5461H27.7485V24.9645ZM23.3868 24.9645H21.9329V23.5461H23.3868V24.9645ZM21.9329 24.9645H20.479V23.5461H21.9329V24.9645ZM20.479 24.9645H19.0251V23.5461H20.479V24.9645ZM19.0251 24.9645H17.5712V23.5461H19.0251V24.9645ZM17.5712 24.9645L16.1173 24.9645V23.5461L17.5712 23.5461V24.9645ZM16.1173 24.9645H14.6634V23.5461H16.1173V24.9645ZM14.6634 24.9645H13.2095V23.5461H14.6634V24.9645ZM11.7556 24.9645H10.3017V23.5461H11.7556V24.9645ZM10.3017 24.9645H8.84776V23.5461H10.3017V24.9645ZM7.39387 24.9645H5.93996V23.5461H7.39387V24.9645ZM4.48606 24.9645H3.03216V23.5461H4.48606V24.9645ZM3.03216 24.9645L1.57826 24.9645V23.5461L3.03216 23.5461V24.9645ZM29.2024 23.5461H27.7485V22.1276H29.2024V23.5461ZM21.9329 23.5461H20.479L20.479 22.1276H21.9329V23.5461ZM16.1173 23.5461H14.6634L14.6634 22.1276H16.1173L16.1173 23.5461ZM13.2095 23.5461H11.7556L11.7556 22.1276H13.2095L13.2095 23.5461ZM10.3017 23.5461H8.84776L8.84776 22.1276H10.3017L10.3017 23.5461ZM7.39387 23.5461H5.93996L5.93996 22.1276H7.39387L7.39387 23.5461ZM5.93996 23.5461H4.48606V22.1276H5.93996L5.93996 23.5461ZM3.03216 23.5461L1.57826 23.5461V22.1276L3.03216 22.1276V23.5461ZM37.9258 22.1276H36.4719V20.7092H37.9258V22.1276ZM36.4719 22.1276H35.018V20.7092H36.4719V22.1276ZM32.1102 22.1276H30.6563V20.7092H32.1102V22.1276ZM27.7485 22.1276H26.2946V20.7092H27.7485V22.1276ZM24.8407 22.1276H23.3868V20.7092L24.8407 20.7092V22.1276ZM23.3868 22.1276H21.9329V20.7092H23.3868V22.1276ZM19.0251 22.1276H17.5712V20.7092H19.0251V22.1276ZM16.1173 22.1276H14.6634V20.7092H16.1173V22.1276ZM13.2095 22.1276H11.7556V20.7092H13.2095V22.1276ZM10.3017 22.1276H8.84776V20.7092H10.3017V22.1276ZM7.39387 22.1276H5.93996V20.7092H7.39387V22.1276ZM37.9258 20.7092H36.4719V19.2908H37.9258V20.7092ZM36.4719 20.7092H35.018V19.2908H36.4719V20.7092ZM33.5641 20.7092H32.1102V19.2908H33.5641V20.7092ZM29.2024 20.7092H27.7485V19.2908H29.2024V20.7092ZM27.7485 20.7092H26.2946V19.2908H27.7485V20.7092ZM26.2946 20.7092H24.8407V19.2908H26.2946V20.7092ZM24.8407 20.7092L23.3868 20.7092V19.2908L24.8407 19.2908V20.7092ZM23.3868 20.7092H21.9329V19.2908H23.3868V20.7092ZM19.0251 20.7092H17.5712V19.2908H19.0251V20.7092ZM16.1173 20.7092H14.6634V19.2908H16.1173V20.7092ZM14.6634 20.7092H13.2095V19.2908H14.6634V20.7092ZM11.7556 20.7092H10.3017V19.2908H11.7556V20.7092ZM10.3017 20.7092H8.84776V19.2908H10.3017V20.7092ZM3.03216 20.7092H1.57826V19.2908H3.03216V20.7092ZM35.018 19.2908H33.5641V17.8723H35.018V19.2908ZM33.5641 19.2908H32.1102V17.8723H33.5641V19.2908ZM32.1102 19.2908H30.6563V17.8723H32.1102V19.2908ZM23.3868 19.2908H21.9329V17.8723H23.3868V19.2908ZM21.9329 19.2908H20.479V17.8723H21.9329V19.2908ZM20.479 19.2908H19.0251V17.8723H20.479V19.2908ZM16.1173 19.2908H14.6634V17.8723H16.1173V19.2908ZM14.6634 19.2908H13.2095V17.8723H14.6634V19.2908ZM11.7556 19.2908H10.3017V17.8723H11.7556V19.2908ZM10.3017 19.2908H8.84776V17.8723H10.3017V19.2908ZM4.48606 19.2908H3.03216V17.8723H4.48606V19.2908ZM3.03216 19.2908H1.57826V17.8723H3.03216V19.2908ZM37.9258 17.8723H36.4719V16.4539H37.9258V17.8723ZM36.4719 17.8723H35.018V16.4539H36.4719V17.8723ZM33.5641 17.8723H32.1102V16.4539H33.5641V17.8723ZM30.6563 17.8723H29.2024V16.4539H30.6563V17.8723ZM29.2024 17.8723H27.7485V16.4539H29.2024V17.8723ZM26.2946 17.8723H24.8407V16.4539H26.2946V17.8723ZM24.8407 17.8723L23.3868 17.8723V16.4539L24.8407 16.4539V17.8723ZM23.3868 17.8723H21.9329V16.4539H23.3868V17.8723ZM20.479 17.8723H19.0251V16.4539H20.479V17.8723ZM16.1173 17.8723H14.6634V16.4539H16.1173V17.8723ZM14.6634 17.8723H13.2095V16.4539H14.6634V17.8723ZM11.7556 17.8723H10.3017V16.4539H11.7556V17.8723ZM7.39387 17.8723H5.93996V16.4539H7.39387V17.8723ZM5.93996 17.8723H4.48606V16.4539H5.93996V17.8723ZM3.03216 17.8723H1.57826V16.4539H3.03216V17.8723ZM35.018 16.4539H33.5641V15.0354H35.018V16.4539ZM33.5641 16.4539H32.1102V15.0354H33.5641V16.4539ZM32.1102 16.4539H30.6563V15.0354H32.1102V16.4539ZM27.7485 16.4539H26.2946L26.2946 15.0354H27.7485L27.7485 16.4539ZM23.3868 16.4539H21.9329L21.9329 15.0354H23.3868L23.3868 16.4539ZM17.5712 16.4539H16.1173V15.0354H17.5712V16.4539ZM16.1173 16.4539H14.6634V15.0354H16.1173V16.4539ZM14.6634 16.4539H13.2095V15.0354H14.6634V16.4539ZM13.2095 16.4539H11.7556V15.0354H13.2095V16.4539ZM11.7556 16.4539H10.3017V15.0354H11.7556V16.4539ZM10.3017 16.4539H8.84776V15.0354H10.3017V16.4539ZM8.84776 16.4539H7.39387V15.0354H8.84776V16.4539ZM7.39387 16.4539H5.93996V15.0354H7.39387V16.4539ZM37.9258 15.0354H36.4719V13.617H37.9258V15.0354ZM36.4719 15.0354H35.018V13.617H36.4719V15.0354ZM35.018 15.0354H33.5641V13.617H35.018V15.0354ZM32.1102 15.0354H30.6563V13.617H32.1102V15.0354ZM29.2024 15.0354H27.7485V13.617H29.2024V15.0354ZM26.2946 15.0354H24.8407V13.617H26.2946V15.0354ZM21.9329 15.0354H20.479V13.617H21.9329V15.0354ZM14.6634 15.0354H13.2095V13.617H14.6634V15.0354ZM13.2095 15.0354H11.7556V13.617H13.2095V15.0354ZM11.7556 15.0354H10.3017V13.617H11.7556V15.0354ZM10.3017 15.0354H8.84776V13.617H10.3017V15.0354ZM8.84776 15.0354H7.39387V13.617H8.84776V15.0354ZM4.48606 15.0354H3.03216V13.617H4.48606V15.0354ZM26.2946 13.617H24.8407V12.1986H26.2946V13.617ZM24.8407 13.617L23.3868 13.617V12.1986L24.8407 12.1986V13.617ZM23.3868 13.617H21.9329V12.1986H23.3868V13.617ZM21.9329 13.617H20.479V12.1986H21.9329V13.617ZM19.0251 13.617H17.5712V12.1986H19.0251V13.617ZM17.5712 13.617H16.1173V12.1986H17.5712V13.617ZM14.6634 13.617H13.2095V12.1986H14.6634V13.617ZM8.84776 13.617H7.39387V12.1986H8.84776V13.617ZM3.03216 13.617H1.57826V12.1986H3.03216V13.617ZM37.9258 12.1986H36.4719V10.7801H37.9258V12.1986ZM36.4719 12.1986H35.018V10.7801H36.4719V12.1986ZM35.018 12.1986H33.5641V10.7801H35.018V12.1986ZM33.5641 12.1986H32.1102V10.7801H33.5641V12.1986ZM32.1102 12.1986H30.6563V10.7801H32.1102V12.1986ZM30.6563 12.1986H29.2024V10.7801H30.6563V12.1986ZM29.2024 12.1986H27.7485V10.7801H29.2024V12.1986ZM23.3868 12.1986H21.9329V10.7801H23.3868V12.1986ZM21.9329 12.1986H20.479V10.7801H21.9329V12.1986ZM17.5712 12.1986H16.1173V10.7801H17.5712V12.1986ZM14.6634 12.1986H13.2095V10.7801H14.6634V12.1986ZM11.7556 12.1986H10.3017V10.7801H11.7556V12.1986ZM8.84776 12.1986H7.39387V10.7801H8.84776V12.1986ZM3.03216 12.1986H1.57826V10.7801H3.03216V12.1986ZM37.9258 10.7801H36.4719V9.36167H37.9258V10.7801ZM29.2024 10.7801H27.7485V9.36167H29.2024V10.7801ZM24.8407 10.7801L23.3868 10.7801V9.36167L24.8407 9.36167V10.7801ZM23.3868 10.7801H21.9329V9.36167H23.3868V10.7801ZM20.479 10.7801H19.0251V9.36167H20.479V10.7801ZM19.0251 10.7801H17.5712V9.36167H19.0251V10.7801ZM14.6634 10.7801H13.2095V9.36167H14.6634V10.7801ZM8.84776 10.7801H7.39387V9.36167H8.84776V10.7801ZM4.48606 10.7801H3.03216V9.36167H4.48606V10.7801ZM37.9258 9.36167H36.4719V7.94323H37.9258L37.9258 9.36167ZM35.018 9.36167H33.5641V7.94323H35.018V9.36167ZM33.5641 9.36167H32.1102V7.94323H33.5641V9.36167ZM32.1102 9.36167H30.6563V7.94323H32.1102V9.36167ZM29.2024 9.36167H27.7485V7.94323H29.2024V9.36167ZM24.8407 9.36167L23.3868 9.36167V7.94323L24.8407 7.94323V9.36167ZM23.3868 9.36167H21.9329V7.94323H23.3868V9.36167ZM17.5712 9.36167H16.1173V7.94323H17.5712V9.36167ZM16.1173 9.36167H14.6634V7.94323H16.1173V9.36167ZM14.6634 9.36167H13.2095V7.94323H14.6634V9.36167ZM13.2095 9.36167H11.7556V7.94323H13.2095V9.36167ZM11.7556 9.36167H10.3017V7.94323H11.7556V9.36167ZM10.3017 9.36167H8.84776V7.94323H10.3017V9.36167ZM8.84776 9.36167H7.39387V7.94323H8.84776V9.36167ZM4.48606 9.36167H3.03216L3.03216 7.94323H4.48606L4.48606 9.36167ZM3.03216 9.36167H1.57826L1.57826 7.94323H3.03216L3.03216 9.36167ZM37.9258 7.94323H36.4719L36.4719 6.52479H37.9258V7.94323ZM35.018 7.94323H33.5641V6.52479H35.018L35.018 7.94323ZM33.5641 7.94323H32.1102V6.52479H33.5641V7.94323ZM32.1102 7.94323H30.6563V6.52479H32.1102V7.94323ZM29.2024 7.94323H27.7485V6.52479H29.2024V7.94323ZM24.8407 7.94323L23.3868 7.94323V6.52479L24.8407 6.52479V7.94323ZM23.3868 7.94323H21.9329V6.52479H23.3868V7.94323ZM21.9329 7.94323H20.479V6.52479H21.9329V7.94323ZM20.479 7.94323H19.0251V6.52479H20.479V7.94323ZM16.1173 7.94323H14.6634V6.52479H16.1173V7.94323ZM13.2095 7.94323H11.7556V6.52479H13.2095V7.94323ZM8.84776 7.94323H7.39387V6.52479H8.84776V7.94323ZM5.93996 7.94323H4.48606V6.52479H5.93996V7.94323ZM4.48606 7.94323H3.03216V6.52479H4.48606V7.94323ZM37.9258 6.52479H36.4719V5.10635H37.9258V6.52479ZM35.018 6.52479H33.5641V5.10635H35.018V6.52479ZM33.5641 6.52479H32.1102V5.10635H33.5641V6.52479ZM32.1102 6.52479H30.6563V5.10635H32.1102V6.52479ZM29.2024 6.52479H27.7485V5.10635H29.2024V6.52479ZM26.2946 6.52479H24.8407V5.10635H26.2946V6.52479ZM19.0251 6.52479H17.5712V5.10635H19.0251V6.52479ZM17.5712 6.52479H16.1173V5.10635H17.5712V6.52479ZM16.1173 6.52479H14.6634V5.10635H16.1173V6.52479ZM14.6634 6.52479H13.2095V5.10635H14.6634V6.52479ZM13.2095 6.52479H11.7556V5.10635H13.2095V6.52479ZM10.3017 6.52479H8.84776V5.10635L10.3017 5.10635V6.52479ZM8.84776 6.52479H7.39387V5.10635H8.84776V6.52479ZM7.39387 6.52479H5.93996V5.10635H7.39387V6.52479ZM4.48606 6.52479H3.03216V5.10635H4.48606V6.52479ZM3.03216 6.52479H1.57826V5.10635H3.03216V6.52479ZM37.9258 5.10635H36.4719V3.68792H37.9258V5.10635ZM29.2024 5.10635H27.7485V3.68792H29.2024V5.10635ZM26.2946 5.10635H24.8407V3.68792H26.2946V5.10635ZM24.8407 5.10635H23.3868V3.68792H24.8407V5.10635ZM23.3868 5.10635H21.9329V3.68792H23.3868V5.10635ZM19.0251 5.10635H17.5712V3.68792H19.0251V5.10635ZM14.6634 5.10635H13.2095V3.68792H14.6634V5.10635ZM13.2095 5.10635H11.7556V3.68792H13.2095V5.10635ZM11.7556 5.10635H10.3017V3.68792H11.7556V5.10635ZM10.3017 5.10635L8.84776 5.10635V3.68792L10.3017 3.68792V5.10635ZM8.84776 5.10635H7.39387V3.68792H8.84776V5.10635ZM37.9258 3.68792H36.4719V2.26947H37.9258V3.68792ZM36.4719 3.68792H35.018V2.26947H36.4719V3.68792ZM35.018 3.68792H33.5641V2.26947H35.018V3.68792ZM33.5641 3.68792H32.1102V2.26947H33.5641V3.68792ZM32.1102 3.68792H30.6563V2.26947H32.1102V3.68792ZM30.6563 3.68792H29.2024V2.26947H30.6563V3.68792ZM29.2024 3.68792H27.7485V2.26947H29.2024V3.68792ZM23.3868 3.68792H21.9329V2.26947H23.3868V3.68792ZM20.479 3.68792H19.0251V2.26947H20.479V3.68792ZM14.6634 3.68792H13.2095V2.26947H14.6634V3.68792ZM11.7556 3.68792H10.3017V2.26947H11.7556V3.68792ZM7.39387 3.68792H5.93996V2.26947H7.39387V3.68792ZM3.03216 3.68792H1.57826V2.26947H3.03216V3.68792Z" fill="black"/>
</svg>
