<svg width="58" height="14" viewBox="0 0 58 14" fill="none" xmlns="http://www.w3.org/2000/svg">
<path fill-rule="evenodd" clip-rule="evenodd" d="M14.3131 13.8903H9.35847L5.6431 3.02951C5.46676 2.52991 5.09232 2.08824 4.54154 1.88008C3.167 1.35695 1.65235 0.940616 0 0.730641V0.3125H7.98151C9.08308 0.3125 9.90925 0.940616 10.0469 1.6701L11.9747 9.50436L16.9269 0.3125H21.7438L14.3131 13.8903ZM24.4994 13.8903H19.8201L23.6732 0.3125H28.3524L24.4994 13.8903ZM34.4051 4.07461C34.5428 3.34332 35.369 2.92518 36.3328 2.92518C37.8475 2.82019 39.4974 3.03016 40.8744 3.55148L41.7006 0.628116C40.3236 0.209975 38.8089 0 37.4344 0C32.8929 0 29.5882 1.88073 29.5882 4.49094C29.5882 6.47666 31.929 7.51929 33.5813 8.14741C35.369 8.77372 36.0575 9.19186 35.9198 9.81816C35.9198 10.7576 34.5428 11.1758 33.1683 11.1758C31.5159 11.1758 29.8636 10.8626 28.3513 10.3395L27.5252 13.2647C29.1775 13.786 30.9651 13.996 32.6175 13.996C37.7098 14.0991 40.8744 12.2202 40.8744 9.40002C40.8744 5.84854 34.4051 5.64038 34.4051 4.07461ZM57.2498 13.8903L53.5344 0.3125H49.5437C48.7175 0.3125 47.8913 0.730641 47.6159 1.35695L40.736 13.8903H45.5529L46.5144 11.9064H52.4329L52.9837 13.8903H57.2498ZM50.232 3.96875L51.6066 9.086H47.7535L50.232 3.96875Z" fill="#172B85"/>
</svg>
