<svg width="17" height="16" viewBox="0 0 17 16" fill="none" xmlns="http://www.w3.org/2000/svg">
<path d="M10.3346 15.1663H6.33464C2.71464 15.1663 1.16797 13.6197 1.16797 9.99967V5.99967C1.16797 2.37967 2.71464 0.833008 6.33464 0.833008H10.3346C13.9546 0.833008 15.5013 2.37967 15.5013 5.99967V9.99967C15.5013 13.6197 13.9546 15.1663 10.3346 15.1663ZM6.33464 1.83301C3.2613 1.83301 2.16797 2.92634 2.16797 5.99967V9.99967C2.16797 13.073 3.2613 14.1663 6.33464 14.1663H10.3346C13.408 14.1663 14.5013 13.073 14.5013 9.99967V5.99967C14.5013 2.92634 13.408 1.83301 10.3346 1.83301H6.33464Z" fill="#07689F"/>
<path d="M7.38695 10.3867C7.25362 10.3867 7.12695 10.3334 7.03362 10.2401L5.14695 8.3534C4.95362 8.16007 4.95362 7.84007 5.14695 7.64673C5.34029 7.4534 5.66029 7.4534 5.85362 7.64673L7.38695 9.18007L10.8136 5.7534C11.007 5.56007 11.327 5.56007 11.5203 5.7534C11.7136 5.94673 11.7136 6.26673 11.5203 6.46006L7.74029 10.2401C7.64695 10.3334 7.52029 10.3867 7.38695 10.3867Z" fill="#07689F"/>
</svg>
