<svg width="17" height="16" viewBox="0 0 17 16" fill="none" xmlns="http://www.w3.org/2000/svg">
<path d="M10.5007 15.1663H6.50065C2.88065 15.1663 1.33398 13.6197 1.33398 9.99967V5.99967C1.33398 2.37967 2.88065 0.833008 6.50065 0.833008H10.5007C14.1207 0.833008 15.6673 2.37967 15.6673 5.99967V9.99967C15.6673 13.6197 14.1207 15.1663 10.5007 15.1663ZM6.50065 1.83301C3.42732 1.83301 2.33398 2.92634 2.33398 5.99967V9.99967C2.33398 13.073 3.42732 14.1663 6.50065 14.1663H10.5007C13.574 14.1663 14.6673 13.073 14.6673 9.99967V5.99967C14.6673 2.92634 13.574 1.83301 10.5007 1.83301H6.50065Z" fill="white"/>
</svg>
