<svg width="16" height="16" viewBox="0 0 16 16" fill="none" xmlns="http://www.w3.org/2000/svg">
<path d="M10.0007 15.1663H6.00065C2.38065 15.1663 0.833984 13.6197 0.833984 9.99967V5.99967C0.833984 2.37967 2.38065 0.833008 6.00065 0.833008H10.0007C13.6207 0.833008 15.1673 2.37967 15.1673 5.99967V9.99967C15.1673 13.6197 13.6207 15.1663 10.0007 15.1663ZM6.00065 1.83301C2.92732 1.83301 1.83398 2.92634 1.83398 5.99967V9.99967C1.83398 13.073 2.92732 14.1663 6.00065 14.1663H10.0007C13.074 14.1663 14.1673 13.073 14.1673 9.99967V5.99967C14.1673 2.92634 13.074 1.83301 10.0007 1.83301H6.00065Z" fill="white"/>
<path d="M7.05297 10.3867C6.91964 10.3867 6.79297 10.3334 6.69964 10.2401L4.81297 8.3534C4.61964 8.16007 4.61964 7.84007 4.81297 7.64673C5.0063 7.4534 5.3263 7.4534 5.51964 7.64673L7.05297 9.18007L10.4796 5.7534C10.673 5.56007 10.993 5.56007 11.1863 5.7534C11.3796 5.94673 11.3796 6.26673 11.1863 6.46006L7.4063 10.2401C7.31297 10.3334 7.1863 10.3867 7.05297 10.3867Z" fill="white"/>
</svg>
